<?xml version="1.0" standalone="no"?>
<!DOCTYPE svg PUBLIC "-//W3C//DTD SVG 20010904//EN"
 "http://www.w3.org/TR/2001/REC-SVG-20010904/DTD/svg10.dtd">
<svg version="1.0" xmlns="http://www.w3.org/2000/svg"
 width="80.000000pt" height="80.000000pt" viewBox="0 0 80.000000 80.000000"
 preserveAspectRatio="xMidYMid meet">
<metadata>
Created by potrace 1.14, written by Peter Selinger 2001-2017
</metadata>
<g transform="translate(0.000000,80.000000) scale(0.100000,-0.100000)"
fill="#000000" stroke="none">
<path d="M675 724 c-170 -60 -393 -235 -630 -494 -27 -30 -11 -18 36 28 l85
83 12 -50 c32 -139 138 -223 282 -224 85 -1 142 19 203 72 128 113 115 354
-25 446 -39 26 -42 37 -13 41 7 1 29 7 47 12 18 6 51 14 73 17 57 8 61 18 20
54 -40 35 -36 34 -90 15z"/>
</g>
</svg>
